Coordinates
version=1
nRows=11
nColumns=42
inDegrees=yes

Units are S.I. units (second, meters, Newtons, ...)
If the header above contains a line with 'inDegrees', this indicates whether rotational values are in degrees (yes) or radians (no).

endheader
time	pelvis_tilt	pelvis_list	pelvis_rotation	pelvis_tx	pelvis_ty	pelvis_tz	hip_flexion_r	hip_adduction_r	hip_rotation_r	knee_angle_r	knee_adduction_r	knee_angle_r_beta	ankle_angle_r	subtalar_angle_r	mtp_angle_r	hip_flexion_l	hip_adduction_l	hip_rotation_l	knee_angle_l	knee_adduction_l	knee_angle_l_beta	ankle_angle_l	subtalar_angle_l	mtp_angle_l	lumbar_extension	lumbar_bending	lumbar_rotation	arm_flex_r	arm_add_r	arm_rot_r	elbow_flex_r	pro_sup_r	wrist_flex_r	wrist_dev_r	arm_flex_l	arm_add_l	arm_rot_l	elbow_flex_l	pro_sup_l	wrist_flex_l	wrist_dev_l
      0.38000000	      6.93286536	      0.01541456	      0.38335615	     -1.39507429	      0.92262284	      0.24323729	     21.03213683	      0.21180048	     -9.11201198	     17.82470266	      1.44588457	      0.31109975	      7.54309188	      3.87664977	     -8.02460464	    -29.07410137	     -3.02484091	    -14.25752278	     19.95210046	      1.65896779	      0.34822985	     14.30223207	     26.47691472	     -8.02460464	    -16.10738515	      3.45058228	     -6.82099027	    -10.88452531	    -11.35650069	      9.81635839	     34.41485965	     90.00000001	      0.00000000	      0.00000000	      3.68569736	    -17.81420972	     -4.89623965	     54.92474507	     90.00000001	      0.00000000	      0.00000000
      0.39000000	      7.34581002	     -0.50133077	      0.13528195	     -1.37803938	      0.92479888	      0.24511681	     20.40587467	      0.91800102	     -8.82769050	     19.67133177	      1.40189667	      0.34332951	      7.66650496	      3.44769535	     -8.01706381	    -28.80583952	     -3.75387674	    -14.26259569	     22.96550761	      1.32329666	      0.40082372	     12.03205654	     25.17924439	     -8.01706381	    -16.50233732	      3.99088575	     -6.48685288	    -10.49755532	    -11.54451360	      9.82736176	     34.29017705	     90.00000001	      0.00000000	      0.00000000	      3.02800459	    -17.42787974	     -5.02751710	     54.55913449	     90.00000001	      0.00000000	      0.00000000
      0.40000000	      7.87540502	     -0.88362147	     -0.20209163	     -1.36133339	      0.92760628	      0.24712497	     19.44979848	      1.47319461	     -8.22544860	     21.15192135	      1.53964033	      0.36917067	      7.95563758	      3.25728384	     -8.01290561	    -28.48417301	     -4.33948861	    -13.96582908	     26.13852338	      1.16183132	      0.45620329	     10.07959693	     24.02599212	     -8.01290561	    -17.09160172	      4.33419611	     -6.05323914	    -10.06178576	    -11.71804049	      9.82166816	     34.22703432	     90.00000001	      0.00000000	      0.00000000	      2.44708611	    -17.06819089	     -5.08723830	     54.11613102	     90.00000001	      0.00000000	      0.00000000
      0.41000000	      8.10594403	     -1.43967024	     -0.46614770	     -1.34470818	      0.93046314	      0.24897568	     18.59212418	      2.22549099	     -7.80285041	     22.17341415	      1.59355599	      0.38699908	      8.37273850	      2.88364348	     -8.00478903	    -27.43630452	     -5.08756501	    -14.33156023	     29.88275627	      0.46044460	      0.52155249	      7.68888307	     21.68590141	     -8.00478903	    -17.33478901	      4.89608614	     -5.68501039	     -9.60659472	    -11.92824580	      9.82548186	     34.14486670	     90.00000001	      0.00000000	      0.00000000	      1.71048799	    -16.65870549	     -5.05019954	     53.58545707	     90.00000001	      0.00000000	      0.00000000
      0.42000000	      8.20013059	     -1.86259859	     -0.85779206	     -1.32875282	      0.93349266	      0.25115851	     17.68917296	      2.87549959	     -6.73741709	     22.76384729	      1.90457515	      0.39730409	      8.57130981	      1.92342033	     -7.97454965	    -26.06580444	     -5.74741793	    -14.22819200	     33.75777256	      0.14157382	      0.58918428	      6.01717207	     19.26821390	     -7.97454965	    -17.51954646	      5.22957356	     -5.16635266	     -9.11164759	    -12.08759877	      9.82217645	     34.10751544	     90.00000001	      0.00000000	      0.00000000	      1.09284269	    -16.27579767	     -4.97843370	     52.91893662	     90.00000001	      0.00000000	      0.00000000
      0.43000000	      8.39514145	     -2.18677906	     -1.13946391	     -1.31298555	      0.93691065	      0.25295945	     16.50840259	      3.32284097	     -6.16552183	     23.05110773	      2.14818526	      0.40231773	      9.36682364	      2.11962502	     -7.96383635	    -24.60143122	     -6.28871786	    -14.46165807	     37.61535938	     -0.59732133	      0.65651187	      4.54111205	     17.35799497	     -7.96383635	    -17.82353120	      5.49140700	     -4.74709747	     -8.61112101	    -12.28266171	      9.79464930	     34.17617638	     90.00000001	      0.00000000	      0.00000000	      0.50077439	    -15.92368300	     -4.73287752	     52.23610562	     90.00000001	      0.00000000	      0.00000000
      0.44000000	      8.22049685	     -2.55667962	     -1.54571492	     -1.29772923	      0.93997636	      0.25524406	     15.66515679	      3.92650540	     -5.57376255	     23.12443424	      2.27906788	      0.40359752	      9.87501427	      2.10715017	     -7.94598046	    -22.58021264	     -6.97351769	    -14.69266041	     41.58095135	     -1.12635641	      0.72572451	      3.58020634	     15.13340699	     -7.94598046	    -17.76701879	      5.72150622	     -4.16180287	     -8.12445572	    -12.44118100	      9.77715247	     34.27351825	     90.00000001	      0.00000000	      0.00000000	     -0.07149976	    -15.61080564	     -4.41135319	     51.44761416	     90.00000001	      0.00000000	      0.00000000
      0.45000000	      8.35417926	     -2.73031235	     -1.76308258	     -1.28248581	      0.94371787	      0.25685067	     14.22328702	      4.15983926	     -5.11188130	     22.71206466	      2.54214129	      0.39640031	     10.76553548	      2.52441869	     -7.93592152	    -20.82633609	     -7.36907698	    -14.99553207	     45.10161775	     -2.03502331	      0.78717173	      2.96997718	     13.30126397	     -7.93592152	    -18.01022965	      5.80379012	     -3.75854222	     -7.65727372	    -12.63292186	      9.75826551	     34.47245005	     90.00000001	      0.00000000	      0.00000000	     -0.59488995	    -15.28293844	     -3.99485774	     50.63394348	     90.00000001	      0.00000000	      0.00000000
      0.46000000	      8.33036150	     -2.91015744	     -2.07337845	     -1.26757026	      0.94734597	      0.25876834	     12.89296409	      4.47044860	     -4.74721594	     22.11552163	      2.66696183	      0.38598867	     11.48224000	      3.01774993	     -7.92578293	    -18.86026709	     -7.79808504	    -15.35950370	     48.38257765	     -2.83346185	      0.84443528	      2.73079710	     11.37654996	     -7.92578293	    -18.10573298	      5.83660694	     -3.24270730	     -7.19178918	    -12.82244226	      9.76513432	     34.72358256	     90.00000001	      0.00000000	      0.00000000	     -1.09646649	    -15.02118526	     -3.47087927	     49.76511609	     90.00000001	      0.00000000	      0.00000000
      0.47000000	      8.41116240	     -2.94192757	     -2.31549913	     -1.25281393	      0.95124224	      0.26042996	     11.34678230	      4.54196662	     -4.48431503	     21.31637723	      2.84176556	      0.37204097	     12.16376884	      3.60825574	     -7.91767036	    -16.97177254	     -8.02314553	    -15.77031573	     51.22644078	     -3.76020165	      0.89407006	      2.95808429	      9.70860319	     -7.91767036	    -18.29485366	      5.71541314	     -2.82357841	     -6.71982295	    -12.99874665	      9.77637408	     35.03668531	     90.00000001	      0.00000000	      0.00000000	     -1.58308002	    -14.77434255	     -2.91895423	     48.88058847	     90.00000001	      0.00000000	      0.00000000
      0.48000000	      8.40060325	     -2.92502795	     -2.57884481	     -1.23820723	      0.95502722	      0.26224051	      9.83565769	      4.61625547	     -4.25325421	     20.34096505	      2.88242700	      0.35501681	     12.75939070	      4.26164755	     -7.90901534	    -14.95633811	     -8.22468880	    -16.29268500	     53.71430166	     -4.66188003	      0.93749142	      3.35760881	      8.11439270	     -7.90901534	    -18.36463446	      5.51277627	     -2.31425689	     -6.31317633	    -13.18806904	      9.82579139	     35.36150953	     90.00000001	      0.00000000	      0.00000000	     -2.04470287	    -14.57824474	     -2.24814781	     47.98948032	     90.00000001	      0.00000000	      0.00000000
